<svg id="svg2" version="1.1" viewBox="0 0 755.91 755.91" xmlns="http://www.w3.org/2000/svg">
 <defs id="defs6">
  <clipPath id="clipPath16">
   <path id="path14" d="M 0,566.93 H 566.93 V 0 H 0 Z"/>
  </clipPath>
  <clipPath id="clipPath168">
   <path id="path166" d="M 0,566.93 H 566.93 V 0 H 0 Z"/>
  </clipPath>
 </defs>
 <g id="g8" transform="matrix(1.3333 0 0 -1.3333 0 755.91)">
  <g id="g10">
   <g id="g12" clip-path="url(#clipPath16)">
    <g id="g18" transform="translate(200.68 361.19)">
     <path id="path20" class="stroked face" d="m0 0c0 13.195 10.796 23.992 23.992 23.992h14.365c13.196 0 23.992-10.797 23.992-23.992v-43.793c0-13.196-10.796-23.992-23.992-23.992h-14.365c-13.196 0-23.992 10.796-23.992 23.992zm108.34 24.127c29.757 0 5.247-36.418 0-46.904l-63.475-126.83c-4.589-10.729-22.313-33.858 13.694-33.858l94.637-1.193-94.637 1.193c-36.007 0-18.283 23.129-13.694 33.858l63.475 126.83c5.247 10.486 29.757 46.904 0 46.904h-74.323zm44.856-131.6c0-12.386-10.042-22.427-22.428-22.427-12.387 0-22.428 10.041-22.428 22.427 0 12.387 10.041 22.428 22.428 22.428 12.386 0 22.428-10.041 22.428-22.428zm7.616-165.1c0-15.56-12.73-28.289-28.289-28.289h-127.44c-17.223 0-31.315 14.091-31.315 31.313 0 17.223 14.092 31.315 31.315 31.315h83.786c0 15.558 12.731 29.621 28.289 29.621h15.36c15.559 0 28.289-12.73 28.289-28.289zm-172.65 336.39v5.164c0 6.051 4.951 11.002 11.002 11.002h180.92v25.594c0-7.095-5.804-12.898-12.898-12.898h-193.42v-108.13c0-7.094-5.803-12.898-12.898-12.898h-1.977c-7.094 0-12.898 5.804-12.898 12.898v-255.19c0-36.639 29.978-66.617 66.617-66.617h100.85c36.64 0 66.617 29.978 66.617 66.617v323.46h-180.92c-6.051 0-11.002 4.951-11.002 11.002z" fill="none" stroke="#bedc50" stroke-miterlimit="10" stroke-width="2"/>
    </g>
    <g id="g22" transform="translate(222.7 493.64)">
     <path id="path24" class="filled hair" d="m0 0c0 5.12 4.189 9.31 9.31 9.31 5.12 0 9.31-4.19 9.31-9.31v-17.57c0-5.12-4.19-9.309-9.31-9.309-5.121 0-9.31 4.189-9.31 9.309zm32.244-8.785h17.57c5.12 0 9.31-4.189 9.31-9.31 0-5.12-4.19-9.309-9.31-9.309h-17.57c-5.12 0-9.309 4.189-9.309 9.309 0 5.121 4.189 9.31 9.309 9.31m-95.36-152.02h1.977c7.095 0 12.898 5.804 12.898 12.898v108.13h193.42c7.094 0 12.898 5.803 12.898 12.898v13.581c0 36.639-29.977 66.616-66.617 66.616h-100.85c-36.639 0-66.617-29.977-66.617-66.616v-134.61c0-7.094 5.804-12.898 12.898-12.898" fill="#bedc50"/>
    </g>
    <g id="g26" transform="translate(222.7 493.64)">
     <path id="path28" class="stroked hair" d="m0 0c0 5.12 4.189 9.31 9.31 9.31 5.12 0 9.31-4.19 9.31-9.31v-17.57c0-5.12-4.19-9.309-9.31-9.309-5.121 0-9.31 4.189-9.31 9.309zm32.244-8.785h17.57c5.12 0 9.31-4.189 9.31-9.31 0-5.12-4.19-9.309-9.31-9.309h-17.57c-5.12 0-9.309 4.189-9.309 9.309 0 5.121 4.189 9.31 9.309 9.31zm-95.36-152.02h1.977c7.095 0 12.898 5.804 12.898 12.898v108.13h193.42c7.094 0 12.898 5.803 12.898 12.898v13.581c0 36.639-29.977 66.616-66.617 66.616h-100.85c-36.639 0-66.617-29.977-66.617-66.616v-134.61c0-7.094 5.804-12.898 12.898-12.898z" fill="none" stroke="#bedc50" stroke-miterlimit="10" stroke-width="2"/>
    </g>
    <g id="g30" transform="translate(325.79 91.636)">
     <path id="path32" class="stroked teeth" d="m0 0v-13.338 13.338h-36.231 36.231v39.926-39.926h12.991zm7.417 60.936h-15.359c-15.559 0-28.289-14.063-28.289-29.622h-83.787c-17.223 0-31.315-14.091-31.315-31.314s14.092-31.313 31.315-31.313h127.44c15.56 0 28.289 12.729 28.289 28.289v35.67c0 15.56-12.729 28.29-28.289 28.29z" fill="none" stroke="#bedc50" stroke-miterlimit="10" stroke-width="2"/>
    </g>
    <g id="g34" transform="translate(445.28 441.17)">
     <path id="path36" class="filled" d="M 0,0 H -64.513 V -27.168 H 0 c 6.051,0 11.002,4.951 11.002,11.002 v 5.164 C 11.002,-4.951 6.051,0 0,0" fill="#bedc50"/>
    </g>
    <g id="g38" transform="translate(445.28 441.17)">
     <path id="path40" class="stroked eyebrow" d="m0 0h-64.513v-27.168h64.513c6.051 0 11.002 4.951 11.002 11.002v5.164c0 6.051-4.951 11.002-11.002 11.002z" fill="none" stroke="#bedc50" stroke-miterlimit="10" stroke-width="2"/>
    </g>
    <g id="g42" transform="translate(199.85 441.17)">
     <path id="path44" class="filled eyebrow" d="m0 0c-6.051 0-11.002-4.951-11.002-11.002v-5.164c0-6.051 4.951-11.002 11.002-11.002h180.92v27.168z" fill="#bedc50"/>
    </g>
    <g id="g46" transform="translate(199.85 441.17)">
     <path id="path48" class="stroked eyebrow" d="m0 0c-6.051 0-11.002-4.951-11.002-11.002v-5.164c0-6.051 4.951-11.002 11.002-11.002h180.92v27.168z" fill="none" stroke="#bedc50" stroke-miterlimit="10" stroke-width="2"/>
    </g>
    <g id="g50" transform="translate(232.01 466.76)">
     <path id="path52" class="stroked gloss" d="m0 0c5.12 0 9.31 4.189 9.31 9.31v17.569c0 5.121-4.19 9.31-9.31 9.31-5.121 0-9.31-4.189-9.31-9.31v-17.569c0-5.121 4.189-9.31 9.31-9.31z" fill="none" stroke="#bedc50" stroke-miterlimit="10" stroke-width="2"/>
    </g>
    <g id="g54" transform="translate(105.58 281)">
     <path id="path56" class="filled earring" d="m0 0c-5.121 0-9.31-4.189-9.31-9.31 0-5.12 4.189-9.309 9.31-9.309h8.785v18.619z" fill="#bedc50"/>
    </g>
    <g id="g58" transform="translate(105.58 281)">
     <path id="path60" class="stroked earring" d="m0 0c-5.121 0-9.31-4.189-9.31-9.31 0-5.12 4.189-9.309 9.31-9.309h8.785v18.619z" fill="none" stroke="#bedc50" stroke-miterlimit="10" stroke-width="2"/>
    </g>
    <g id="g62" transform="translate(254.94 466.24)">
     <path id="path64" class="stroked gloss" d="m0 0h17.57c5.12 0 9.309 4.189 9.309 9.31 0 5.12-4.189 9.309-9.309 9.309h-17.57c-5.12 0-9.31-4.189-9.31-9.309 0-5.121 4.19-9.31 9.31-9.31z" fill="none" stroke="#bedc50" stroke-miterlimit="10" stroke-width="2"/>
    </g>
    <g id="g66" transform="translate(239.75 376.98)">
     <path id="path68" class="filled eye" d="m0 0v-15.486c-8.386-0.981-14.897-8.1-14.897-16.75 0-0.759 0.067-1.501 0.164-2.234h-16.679c-0.088 0.962-0.14 1.934-0.14 2.918 0 17.426 14.127 31.552 31.552 31.552m-15.074-83.582h14.366c13.195 0 23.991 10.796 23.991 23.991v43.794c0 13.195-10.796 23.991-23.991 23.991h-14.366c-13.195 0-23.991-10.796-23.991-23.991v-43.794c0-13.195 10.796-23.991 23.991-23.991" fill="#bedc50"/>
    </g>
    <g id="g70" transform="translate(239.75 376.98)">
     <path id="path72" class="stroked eye" d="m0 0v-15.486c-8.386-0.981-14.897-8.1-14.897-16.75 0-0.759 0.067-1.501 0.164-2.234h-16.679c-0.088 0.962-0.14 1.934-0.14 2.918 0 17.426 14.127 31.552 31.552 31.552zm-15.074-83.582h14.366c13.195 0 23.991 10.796 23.991 23.991v43.794c0 13.195-10.796 23.991-23.991 23.991h-14.366c-13.195 0-23.991-10.796-23.991-23.991v-43.794c0-13.195 10.796-23.991 23.991-23.991z" fill="none" stroke="#bedc50" stroke-miterlimit="10" stroke-width="2"/>
    </g>
    <g id="g74" transform="translate(335.72 270.65)">
     <path id="path76" class="filled eye" d="m0 0v-10.229c-5.257-0.649-9.338-5.351-9.338-11.065 0-0.502 0.042-0.991 0.103-1.476h-10.455c-0.056 0.635-0.088 1.278-0.088 1.928 0 11.511 8.855 20.842 19.778 20.842m-26.691-16.937c0-12.387 10.041-22.428 22.427-22.428s22.428 10.041 22.428 22.428c0 12.386-10.042 22.427-22.428 22.427s-22.427-10.041-22.427-22.427" fill="#bedc50"/>
    </g>
    <g id="g78" transform="translate(335.72 270.65)">
     <path id="path80" class="stroked eye" d="m0 0v-10.229c-5.257-0.649-9.338-5.351-9.338-11.065 0-0.502 0.042-0.991 0.103-1.476h-10.455c-0.056 0.635-0.088 1.278-0.088 1.928 0 11.511 8.855 20.842 19.778 20.842zm-26.691-16.937c0-12.387 10.041-22.428 22.427-22.428s22.428 10.041 22.428 22.428c0 12.386-10.042 22.427-22.428 22.427s-22.427-10.041-22.427-22.427z" fill="none" stroke="#bedc50" stroke-miterlimit="10" stroke-width="2"/>
    </g>
    <g id="g82" transform="translate(133.79 325.22)">
     <path id="path84" class="stroked ear" d="m0 0h-6.52c-7.094 0-12.898-5.804-12.898-12.898v-31.326h8.785c5.12 0 9.31-4.19 9.31-9.31s-4.19-9.309-9.31-9.309h-8.785v-3.814c0-7.094 5.804-12.898 12.898-12.898h6.52c7.094 0 12.898 5.804 12.898 12.898v53.759c0 7.094-5.804 12.898-12.898 12.898z" fill="none" stroke="#bedc50" stroke-miterlimit="10" stroke-width="2"/>
    </g>
    <g id="g86" transform="translate(132.46 271.69)">
     <path id="path88" class="filled earring" d="m0 0c0 5.12-4.189 9.31-9.31 9.31h-8.785v-18.62h8.785c5.121 0 9.31 4.19 9.31 9.31" fill="#bedc50"/>
    </g>
    <g id="g90" transform="translate(132.46 271.69)">
     <path id="path92" class="stroked earring" d="m0 0c0 5.12-4.189 9.31-9.31 9.31h-8.785v-18.62h8.785c5.121 0 9.31 4.19 9.31 9.31z" fill="none" stroke="#bedc50" stroke-miterlimit="10" stroke-width="2"/>
    </g>
    <g id="g94" transform="translate(225.01 342.51)">
     <path id="path96" class="stroked" d="m0 0c-0.097 0.733-0.165 1.475-0.165 2.234 0 8.65 6.512 15.769 14.898 16.75v15.486c-17.425 0-31.552-14.127-31.552-31.552 0-0.984 0.051-1.957 0.14-2.918z" fill="none" stroke="#bedc50" stroke-miterlimit="10" stroke-width="2"/>
    </g>
    <g id="g98" transform="translate(326.48 247.88)">
     <path id="path100" class="stroked eyegloss" d="m0 0c-0.061 0.484-0.103 0.974-0.103 1.476 0 5.713 4.082 10.416 9.338 11.064v10.23c-10.922 0-19.778-9.332-19.778-20.842 0-0.651 0.032-1.293 0.088-1.928z" fill="none" stroke="#bedc50" stroke-miterlimit="10" stroke-width="2"/>
    </g>
    <g id="g102" transform="translate(273.5,136.43)">
     <path id="path104" class="filled beard" d="m0 0c-3.025 0-5.5 2.475-5.5 5.5v13c0 3.025 2.475 5.5 5.5 5.5s5.5-2.475 5.5-5.5v-13c0-3.025-2.475-5.5-5.5-5.5" fill="#bedc50"/>
    </g>
    <g id="g106" transform="translate(273.5,136.43)">
     <path id="path108" class="stroked beard" d="m0 0c-3.025 0-5.5 2.475-5.5 5.5v13c0 3.025 2.475 5.5 5.5 5.5s5.5-2.475 5.5-5.5v-13c0-3.025-2.475-5.5-5.5-5.5z" fill="none" stroke="#bedc50" stroke-miterlimit="10" stroke-width="2"/>
    </g>
    <g id="g110" transform="translate(254,136.43)">
     <path id="path112" class="filled beard" d="m0 0c-3.025 0-5.5 2.475-5.5 5.5v13c0 3.025 2.475 5.5 5.5 5.5s5.5-2.475 5.5-5.5v-13c0-3.025-2.475-5.5-5.5-5.5" fill="#bedc50"/>
    </g>
    <g id="g114" transform="translate(254,136.43)">
     <path id="path116" class="stroked beard" d="m0 0c-3.025 0-5.5 2.475-5.5 5.5v13c0 3.025 2.475 5.5 5.5 5.5s5.5-2.475 5.5-5.5v-13c0-3.025-2.475-5.5-5.5-5.5z" fill="none" stroke="#bedc50" stroke-miterlimit="10" stroke-width="2"/>
    </g>
    <g id="g118" transform="translate(235,136.43)">
     <path id="path120" class="filled beard" d="m0 0c-3.025 0-5.5 2.475-5.5 5.5v13c0 3.025 2.475 5.5 5.5 5.5s5.5-2.475 5.5-5.5v-13c0-3.025-2.475-5.5-5.5-5.5" fill="#bedc50"/>
    </g>
    <g id="g122" class="stroked beard" transform="translate(235,136.43)">
     <path id="path124" class="stroked beard" d="m0 0c-3.025 0-5.5 2.475-5.5 5.5v13c0 3.025 2.475 5.5 5.5 5.5s5.5-2.475 5.5-5.5v-13c0-3.025-2.475-5.5-5.5-5.5z" fill="none" stroke="#bedc50" stroke-miterlimit="10" stroke-width="2"/>
    </g>
    <g id="g126" transform="translate(216.5,136.43)">
     <path id="path128" class="filled beard" d="m0 0c-3.025 0-5.5 2.475-5.5 5.5v13c0 3.025 2.475 5.5 5.5 5.5s5.5-2.475 5.5-5.5v-13c0-3.025-2.475-5.5-5.5-5.5" fill="#bedc50"/>
    </g>
    <g id="g130" transform="translate(216.5,136.43)">
     <path id="path132" class="stroked beard" d="m0 0c-3.025 0-5.5 2.475-5.5 5.5v13c0 3.025 2.475 5.5 5.5 5.5s5.5-2.475 5.5-5.5v-13c0-3.025-2.475-5.5-5.5-5.5z" fill="none" stroke="#bedc50" stroke-miterlimit="10" stroke-width="2"/>
    </g>
    <g id="g134" transform="translate(296.5,14.43)">
     <path id="path136" class="filled beard" d="m0 0c-3.025 0-5.5 2.475-5.5 5.5v13c0 3.025 2.475 5.5 5.5 5.5s5.5-2.475 5.5-5.5v-13c0-3.025-2.475-5.5-5.5-5.5" fill="#bedc50"/>
    </g>
    <g id="g138" transform="translate(296.5,14.43)">
     <path id="path140" class="stroked beard" d="m0 0c-3.025 0-5.5 2.475-5.5 5.5v13c0 3.025 2.475 5.5 5.5 5.5s5.5-2.475 5.5-5.5v-13c0-3.025-2.475-5.5-5.5-5.5z" fill="none" stroke="#bedc50" stroke-miterlimit="10" stroke-width="2"/>
    </g>
    <g id="g142" transform="translate(277.5,14.43)">
     <path id="path144" class="filled beard" d="m0 0c-3.025 0-5.5 2.475-5.5 5.5v13c0 3.025 2.475 5.5 5.5 5.5s5.5-2.475 5.5-5.5v-13c0-3.025-2.475-5.5-5.5-5.5" fill="#bedc50"/>
    </g>
    <g id="g146" transform="translate(277.5,14.43)">
     <path id="path148" class="stroked beard" d="m0 0c-3.025 0-5.5 2.475-5.5 5.5v13c0 3.025 2.475 5.5 5.5 5.5s5.5-2.475 5.5-5.5v-13c0-3.025-2.475-5.5-5.5-5.5z" fill="none" stroke="#bedc50" stroke-miterlimit="10" stroke-width="2"/>
    </g>
    <g id="g150" transform="translate(259,14.43)">
     <path id="path152" class="filled beard" d="m0 0c-3.025 0-5.5 2.475-5.5 5.5v13c0 3.025 2.475 5.5 5.5 5.5s5.5-2.475 5.5-5.5v-13c0-3.025-2.475-5.5-5.5-5.5" fill="#bedc50"/>
    </g>
    <g id="g154" transform="translate(259,14.43)">
     <path id="path156" class="stroked beard" d="m0 0c-3.025 0-5.5 2.475-5.5 5.5v13c0 3.025 2.475 5.5 5.5 5.5s5.5-2.475 5.5-5.5v-13c0-3.025-2.475-5.5-5.5-5.5z" fill="none" stroke="#bedc50" stroke-miterlimit="10" stroke-width="2"/>
    </g>
   </g>
  </g>
  <text class='filled' id="text160" transform="scale(1,-1)" x="427.44846" y="-385.53033" fill="#bedc50" font-family="'Helvetica'" font-size="27.664px" writing-mode="tb-rl"><tspan id="tspan158" x="427.44846" y="-385.53033 -352.8588 -320.18726 -287.51572 -254.84419 -222.17265 -189.50111 -156.82957 -124.15804 -91.486496">TSCHOUNAES</tspan></text>
  <g id="g162">
   <g id="g164" clip-path="url(#clipPath168)">
    <g id="g170" transform="translate(441,401.93)">
     <path id="path172" class="stroked speach" d="m0 0h-24c-6.6 0-12-5.4-12-12v-277.15l-10-7.757 10-7.757v-24.337c0-6.6 5.4-12 12-12h24c6.6 0 12 5.4 12 12v317c0 6.6-5.4 12-12 12z" fill="none" stroke="#bedc50" stroke-miterlimit="10" stroke-width="2"/>
    </g>
   </g>
  </g>
 </g>
</svg>
